<?xml version="1.0" encoding="UTF-8"?>
<svg xmlns="http://www.w3.org/2000/svg" xmlns:xlink="http://www.w3.org/1999/xlink" width="150px" height="150px" viewBox="0 0 150 150" version="1.1">
<g id="surface1">
<path style=" stroke:none;fill-rule:nonzero;fill:rgb(14.901961%,30.196078%,89.411765%);fill-opacity:1;" d="M 20.90625 135.003906 L 8.867188 0 L 141.132812 0 L 129.082031 134.984375 L 74.917969 150 Z M 20.90625 135.003906 "/>
<path style=" stroke:none;fill-rule:nonzero;fill:rgb(16.078431%,39.607843%,94.509804%);fill-opacity:1;" d="M 118.765625 126.390625 L 129.0625 11.039062 L 75 11.039062 L 75 138.523438 Z M 118.765625 126.390625 "/>
<path style=" stroke:none;fill-rule:nonzero;fill:rgb(92.156863%,92.156863%,92.156863%);fill-opacity:1;" d="M 36.460938 61.109375 L 37.945312 77.667969 L 75 77.667969 L 75 61.109375 Z M 34.984375 44.15625 L 75 44.15625 L 75 27.597656 L 33.480469 27.597656 Z M 75 104.113281 L 74.925781 104.132812 L 56.488281 99.152344 L 55.308594 85.945312 L 38.6875 85.945312 L 41.007812 111.945312 L 74.925781 121.363281 L 75 121.339844 Z M 75 104.113281 "/>
<path style=" stroke:none;fill-rule:nonzero;fill:rgb(100%,100%,100%);fill-opacity:1;" d="M 74.941406 61.109375 L 74.941406 77.667969 L 95.332031 77.667969 L 93.410156 99.140625 L 74.941406 104.125 L 74.941406 121.351562 L 108.886719 111.945312 L 109.136719 109.148438 L 113.027344 65.554688 L 113.429688 61.109375 L 116.421875 27.597656 L 74.941406 27.597656 L 74.941406 44.15625 L 98.273438 44.15625 L 96.765625 61.109375 Z M 74.941406 61.109375 "/>
</g>
</svg>
