<?xml version="1.0" encoding="UTF-8"?>
<svg xmlns="http://www.w3.org/2000/svg" xmlns:xlink="http://www.w3.org/1999/xlink" width="150px" height="150px" viewBox="0 0 150 150" version="1.1">
<g id="surface1">
<path style=" stroke:none;fill-rule:nonzero;fill:rgb(19.215686%,47.058824%,77.647059%);fill-opacity:1;" d="M 14.648438 0 L 135.351562 0 C 143.441406 0 150 6.558594 150 14.648438 L 150 135.351562 C 150 143.441406 143.441406 150 135.351562 150 L 14.648438 150 C 6.558594 150 0 143.441406 0 135.351562 L 0 14.648438 C 0 6.558594 6.558594 0 14.648438 0 Z M 14.648438 0 "/>
<path style=" stroke:none;fill-rule:nonzero;fill:rgb(19.215686%,47.058824%,77.647059%);fill-opacity:1;" d="M 14.648438 0 L 135.351562 0 C 143.441406 0 150 6.558594 150 14.648438 L 150 135.351562 C 150 143.441406 143.441406 150 135.351562 150 L 14.648438 150 C 6.558594 150 0 143.441406 0 135.351562 L 0 14.648438 C 0 6.558594 6.558594 0 14.648438 0 Z M 14.648438 0 "/>
<path style=" stroke:none;fill-rule:evenodd;fill:rgb(100%,100%,100%);fill-opacity:1;" d="M 92.851562 119.363281 L 92.851562 134.027344 C 95.238281 135.25 98.058594 136.167969 101.3125 136.777344 C 104.566406 137.390625 108 137.695312 111.605469 137.695312 C 115.121094 137.695312 118.460938 137.359375 121.625 136.6875 C 124.789062 136.015625 127.5625 134.90625 129.945312 133.363281 C 132.332031 131.820312 134.21875 129.804688 135.609375 127.3125 C 137 124.824219 137.695312 121.746094 137.695312 118.078125 C 137.695312 115.421875 137.296875 113.089844 136.503906 111.089844 C 135.707031 109.089844 134.5625 107.308594 133.0625 105.75 C 131.566406 104.191406 129.769531 102.792969 127.675781 101.558594 C 125.582031 100.320312 123.222656 99.152344 120.59375 98.050781 C 118.667969 97.257812 116.941406 96.484375 115.410156 95.738281 C 113.882812 94.988281 112.585938 94.222656 111.515625 93.445312 C 110.445312 92.664062 109.621094 91.839844 109.039062 90.96875 C 108.457031 90.097656 108.167969 89.113281 108.167969 88.011719 C 108.167969 87.003906 108.425781 86.097656 108.945312 85.285156 C 109.464844 84.476562 110.199219 83.78125 111.148438 83.199219 C 112.09375 82.621094 113.257812 82.167969 114.632812 81.847656 C 116.007812 81.527344 117.535156 81.367188 119.21875 81.367188 C 120.441406 81.367188 121.730469 81.460938 123.089844 81.644531 C 124.453125 81.828125 125.820312 82.109375 127.195312 82.492188 C 128.566406 82.871094 129.90625 83.355469 131.207031 83.933594 C 132.507812 84.515625 133.707031 85.1875 134.804688 85.953125 L 134.804688 72.246094 C 132.574219 71.390625 130.136719 70.757812 127.492188 70.34375 C 124.847656 69.933594 121.816406 69.726562 118.390625 69.726562 C 114.90625 69.726562 111.605469 70.101562 108.488281 70.847656 C 105.371094 71.597656 102.628906 72.765625 100.257812 74.355469 C 97.890625 75.945312 96.015625 77.96875 94.640625 80.429688 C 93.265625 82.886719 92.578125 85.828125 92.578125 89.25 C 92.578125 93.621094 93.839844 97.347656 96.359375 100.433594 C 98.882812 103.519531 102.710938 106.132812 107.847656 108.269531 C 109.863281 109.097656 111.742188 109.90625 113.484375 110.699219 C 115.226562 111.496094 116.734375 112.320312 118.003906 113.175781 C 119.269531 114.03125 120.273438 114.960938 121.003906 115.972656 C 121.738281 116.980469 122.105469 118.125 122.105469 119.410156 C 122.105469 120.355469 121.875 121.234375 121.417969 122.042969 C 120.960938 122.855469 120.265625 123.554688 119.332031 124.152344 C 118.398438 124.746094 117.238281 125.214844 115.847656 125.550781 C 114.457031 125.886719 112.828125 126.054688 110.964844 126.054688 C 107.785156 126.054688 104.636719 125.496094 101.519531 124.382812 C 98.402344 123.265625 95.511719 121.59375 92.851562 119.363281 Z M 68.195312 83.226562 L 87.011719 83.226562 L 87.011719 71.191406 L 34.570312 71.191406 L 34.570312 83.226562 L 53.292969 83.226562 L 53.292969 136.816406 L 68.195312 136.816406 Z M 68.195312 83.226562 "/>
</g>
</svg>
